<svg width="31" height="31" viewBox="0 0 31 31" fill="none" xmlns="http://www.w3.org/2000/svg">
<circle cx="15.5" cy="15.5" r="12.5" fill="#D1D2D1"/>
<path fill-rule="evenodd" clip-rule="evenodd" d="M0.916687 15.5C0.916687 7.44565 7.44565 0.916687 15.5 0.916687C23.5544 0.916687 30.0834 7.44565 30.0834 15.5C30.0834 23.5544 23.5544 30.0834 15.5 30.0834C7.44565 30.0834 0.916687 23.5544 0.916687 15.5ZM8.93752 17.6875C8.35736 17.6875 7.80096 17.4571 7.39072 17.0468C6.98049 16.6366 6.75002 16.0802 6.75002 15.5C6.75002 14.9199 6.98049 14.3635 7.39072 13.9532C7.80096 13.543 8.35736 13.3125 8.93752 13.3125C9.51768 13.3125 10.0741 13.543 10.4843 13.9532C10.8946 14.3635 11.125 14.9199 11.125 15.5C11.125 16.0802 10.8946 16.6366 10.4843 17.0468C10.0741 17.4571 9.51768 17.6875 8.93752 17.6875V17.6875ZM13.3125 15.5C13.3125 16.0802 13.543 16.6366 13.9532 17.0468C14.3635 17.4571 14.9199 17.6875 15.5 17.6875C16.0802 17.6875 16.6366 17.4571 17.0468 17.0468C17.4571 16.6366 17.6875 16.0802 17.6875 15.5C17.6875 14.9199 17.4571 14.3635 17.0468 13.9532C16.6366 13.543 16.0802 13.3125 15.5 13.3125C14.9199 13.3125 14.3635 13.543 13.9532 13.9532C13.543 14.3635 13.3125 14.9199 13.3125 15.5V15.5ZM19.875 15.5C19.875 16.0802 20.1055 16.6366 20.5157 17.0468C20.926 17.4571 21.4824 17.6875 22.0625 17.6875C22.6427 17.6875 23.1991 17.4571 23.6093 17.0468C24.0196 16.6366 24.25 16.0802 24.25 15.5C24.25 14.9199 24.0196 14.3635 23.6093 13.9532C23.1991 13.543 22.6427 13.3125 22.0625 13.3125C21.4824 13.3125 20.926 13.543 20.5157 13.9532C20.1055 14.3635 19.875 14.9199 19.875 15.5V15.5Z" fill="#24292E"/>
</svg>
